<svg xmlns="http://www.w3.org/2000/svg" viewBox="0 0 24 24"><g class="layer"><path d="M8.017 13.416c-.878.25-1.453.683-1.832 1.116a3.94 3.94 0 0 1 1.507-.79 3.695 3.695 0 0 1 1.723-.098v-.369a3.874 3.874 0 0 0-1.398.141zm-1.875-3.11-3.263.856s.054.086.174.195l2.763-.727s-.043.499-.379.954c.64-.488.705-1.279.705-1.279zm2.731 7.652c-4.596 1.235-7.024-4.076-7.76-6.829C.775 9.861.624 8.896.58 8.279v-.174c-.238.01-.347.14-.325.499.043.617.184 1.582.531 2.85.737 2.753 3.165 8.064 7.76 6.829.998-.271 1.757-.759 2.32-1.377-.52.466-1.17.835-1.983 1.052zM9.74 7.064v.326h1.8c-.033-.12-.077-.217-.109-.326h-1.69z"/><path d="M11.94 9.742c.813.227 1.236.79 1.464 1.3l.9.26s-.12-1.755-1.713-2.2c-1.485-.423-2.406.824-2.515.986.434-.303 1.062-.563 1.864-.336zm7.187 1.3c-1.485-.422-2.407.824-2.515.987.434-.304 1.062-.564 1.864-.336.813.227 1.236.79 1.464 1.3l.9.26s-.13-1.755-1.713-2.2zm-.9 4.629-7.511-2.092s.075.411.39.943l6.33 1.766c.52-.303.791-.617.791-.617zm-5.214 4.508c-5.95-1.593-5.235-9.148-4.27-12.735.401-1.474.802-2.569 1.138-3.306-.206-.043-.369.065-.531.401-.358.726-.813 1.908-1.257 3.566-.965 3.588-1.68 11.142 4.27 12.736 2.807.748 4.986-.39 6.623-2.179-1.55 1.398-3.523 2.179-5.962 1.528z"/><path d="M9.73 16.19v-1.528l-4.25 1.204s.315-1.821 2.526-2.45a3.695 3.695 0 0 1 1.723-.098V7.064h2.125a12.592 12.592 0 0 0-.64-1.647c-.314-.629-.628-.217-1.355.39-.51.423-1.799 1.333-3.74 1.854-1.94.52-3.51.379-4.161.27-.932-.162-1.41-.368-1.366.337.043.617.184 1.582.531 2.85.737 2.753 3.165 8.064 7.76 6.829 1.204-.325 2.05-.965 2.635-1.767H9.75zm-6.862-5.018 3.263-.856s-.098 1.247-1.323 1.572c-1.224.325-1.94-.716-1.94-.716z"/><path d="M22.02 7.13c-.85.15-2.88.33-5.4-.34-2.52-.67-4.19-1.85-4.85-2.4-.94-.78-1.35-1.33-1.76-.5-.36.73-.82 1.91-1.26 3.56-.96 3.58-1.68 11.14 4.27 12.73 5.95 1.59 9.11-5.32 10.08-8.9.44-1.65.64-2.91.69-3.71.06-.92-.57-.65-1.77-.44zm-11.95 2.96s.94-1.45 2.53-1c1.59.45 1.72 2.21 1.72 2.21l-4.24-1.2zm3.88 6.52c-2.8-.82-3.23-3.04-3.23-3.04l7.51 2.1s-1.52 1.75-4.29.95zm2.66-4.57s.94-1.45 2.53-1c1.59.45 1.72 2.21 1.72 2.21l-4.24-1.2z"/><path d="m8.244 15.085-2.764.78s.304-1.701 2.342-2.384L6.26 7.617l-.141.044c-1.94.52-3.512.379-4.162.27-.932-.162-1.41-.368-1.366.337.043.617.184 1.582.531 2.85.737 2.753 3.165 8.064 7.76 6.829l.142-.044-.759-2.829zm-5.376-3.913 3.263-.856s-.098 1.247-1.323 1.572c-1.224.325-1.94-.716-1.94-.716z"/><path d="m14.076 16.657-.13-.033c-2.797-.813-3.23-3.045-3.23-3.045l3.87 1.083 2.048-7.858-.022-.01c-2.515-.673-4.184-1.843-4.845-2.396-.943-.78-1.355-1.322-1.756-.499-.358.727-.813 1.908-1.257 3.566-.965 3.577-1.68 11.143 4.27 12.736l.12.033.932-3.555zm-4.01-6.558s.942-1.452 2.525-1.008c1.593.456 1.712 2.2 1.712 2.2l-4.238-1.203z"/><path d="m8.385 15.042-.737.206c.174.986.488 1.93.965 2.764.087-.022.162-.033.25-.054.227-.066.433-.13.639-.217-.542-.802-.9-1.724-1.117-2.7zm-.292-6.937c-.38 1.42-.727 3.458-.63 5.506.164-.076.348-.14.543-.195l.14-.033c-.162-2.189.196-4.41.597-5.928.108-.38.206-.737.314-1.073a6.23 6.23 0 0 1-.553.325c-.14.422-.281.889-.411 1.398z"/></g></svg>
