<?xml version="1.0" standalone="no"?>
<!DOCTYPE svg PUBLIC "-//W3C//DTD SVG 20010904//EN"
 "http://www.w3.org/TR/2001/REC-SVG-20010904/DTD/svg10.dtd">
<svg version="1.0" xmlns="http://www.w3.org/2000/svg"
 width="375.000000pt" height="375.000000pt" viewBox="0 0 375.000000 375.000000"
 preserveAspectRatio="xMidYMid meet">
<metadata>
Created by potrace 1.14, written by Peter Selinger 2001-2017
</metadata>
<g transform="translate(0.000000,375.000000) scale(0.100000,-0.100000)"
fill="#000000" stroke="none">
<path d="M1595 3674 c-66 -11 -254 -56 -315 -76 -135 -43 -280 -134 -338 -211
-48 -65 -73 -127 -82 -210 -6 -45 -10 -85 -10 -89 0 -5 -11 -8 -24 -8 -40 0
-79 -19 -119 -58 -80 -78 -123 -184 -133 -331 -6 -85 -3 -113 16 -191 15 -61
34 -109 56 -142 l34 -50 0 -146 c0 -138 19 -294 41 -332 4 -9 8 65 8 175 0
236 20 368 75 492 33 72 64 104 127 132 42 19 66 20 320 20 288 0 387 7 584
41 70 12 170 22 240 23 127 1 170 -8 374 -80 135 -48 186 -130 237 -381 16
-80 39 -156 65 -215 23 -51 61 -139 86 -197 l44 -105 -16 -119 c-40 -281 -128
-488 -270 -632 -39 -39 -95 -84 -125 -100 -48 -24 -66 -28 -140 -28 -80 0 -90
2 -169 41 -122 61 -142 62 -426 23 -38 -6 -99 -12 -135 -16 -61 -5 -63 -4 -39
10 23 13 55 63 46 73 -2 2 -28 -8 -58 -22 -86 -40 -183 -33 -236 17 -15 14
-23 17 -23 8 0 -7 16 -28 36 -46 19 -19 29 -34 22 -34 -7 0 -58 11 -113 25
-146 36 -187 34 -279 -15 -92 -49 -140 -52 -185 -14 -37 31 -61 102 -62 188
-1 88 -17 33 -18 -64 -1 -88 9 -129 56 -228 60 -127 216 -337 388 -520 124
-133 271 -192 479 -192 138 0 215 12 331 52 240 82 524 273 691 465 123 142
241 312 270 391 22 60 32 72 58 73 l21 0 -21 9 c-21 8 -21 10 -7 107 7 54 17
190 21 303 8 192 10 208 33 245 18 30 25 35 27 22 2 -10 7 -16 10 -14 4 2 26
11 48 21 50 22 48 16 69 235 8 87 29 225 46 307 28 135 31 161 26 274 -6 133
-26 228 -69 322 l-26 55 29 42 c15 24 35 67 44 96 17 59 20 155 5 155 -5 0
-18 -19 -29 -42 -30 -66 -58 -93 -110 -108 -28 -8 -35 -5 -78 36 -165 155
-424 319 -635 403 -95 38 -270 89 -383 112 -88 19 -330 32 -390 23z m-335
-2840 c137 -33 281 -36 455 -11 239 34 274 39 292 35 23 -5 -84 -41 -192 -65
-62 -13 -119 -17 -250 -16 -180 2 -290 19 -407 63 -58 21 -78 37 -35 27 12 -3
74 -18 137 -33z m-148 -50 c46 -84 108 -142 206 -190 67 -33 85 -38 174 -42
72 -3 117 0 171 13 162 38 158 40 -67 40 -178 0 -219 3 -263 18 -55 19 -72 42
-54 76 7 13 17 17 31 14 16 -4 19 -2 14 11 -6 16 2 20 41 18 101 -6 285 0 350
10 130 21 246 0 168 -31 -25 -10 -23 -10 15 -5 32 4 48 2 61 -10 17 -16 21
-14 55 25 21 22 42 54 48 70 12 35 22 30 48 -21 27 -52 25 -98 -5 -164 -32
-69 -97 -127 -200 -176 -91 -44 -158 -57 -207 -41 -18 6 -121 12 -229 14
l-197 3 -53 36 c-76 50 -142 121 -174 186 -23 47 -27 65 -22 111 6 63 25 113
41 108 6 -2 28 -35 48 -73z"/>
<path d="M1818 703 c7 -3 16 -2 19 1 4 3 -2 6 -13 5 -11 0 -14 -3 -6 -6z"/>
<path d="M1748 693 c7 -3 16 -2 19 1 4 3 -2 6 -13 5 -11 0 -14 -3 -6 -6z"/>
<path d="M2005 2079 c-96 -6 -241 -37 -272 -57 -31 -19 -29 -48 4 -69 37 -24
129 -22 218 6 86 27 237 29 347 6 40 -9 85 -18 101 -22 43 -9 34 22 -15 54
-103 65 -233 93 -383 82z"/>
<path d="M905 2048 c-54 -12 -100 -45 -126 -91 -29 -52 -15 -62 45 -32 59 30
158 34 226 10 63 -22 133 -20 156 6 17 19 17 23 3 47 -12 22 -28 30 -84 43
-95 22 -172 28 -220 17z"/>
<path d="M1977 1749 c-82 -19 -164 -82 -188 -146 -12 -32 -12 -110 1 -118 6
-3 10 3 10 14 0 37 49 129 85 159 33 27 94 52 126 52 7 0 2 -11 -14 -27 -56
-60 -72 -145 -38 -218 30 -67 51 -79 121 -72 66 7 100 22 149 62 33 28 56 25
48 -6 -4 -15 -2 -17 13 -9 22 12 42 88 33 130 -7 38 3 35 60 -17 42 -38 55
-32 25 11 -63 92 -161 157 -275 181 -76 16 -101 17 -156 4z m115 -115 c11 -23
10 -29 -10 -44 -41 -34 -87 3 -62 50 16 30 58 26 72 -6z"/>
<path d="M970 1731 c-34 -11 -81 -37 -107 -59 -29 -26 -83 -112 -83 -133 0
-26 21 -35 33 -13 18 36 123 131 155 142 l32 11 -24 -32 c-46 -61 -42 -165 7
-222 19 -23 30 -26 85 -26 62 -1 86 9 165 64 14 9 19 9 25 0 11 -18 28 -2 41
39 10 30 9 43 -4 74 -42 102 -116 153 -227 160 -40 2 -84 0 -98 -5z m108 -93
c7 -7 12 -22 12 -35 0 -27 -42 -42 -65 -23 -28 23 -11 70 25 70 9 0 21 -5 28
-12z"/>
<path d="M3090 1610 c-62 -62 -50 -80 15 -23 30 26 55 51 55 56 0 19 -34 3
-70 -33z"/>
</g>
</svg>
